# xmcd CD database file
#
# Track frame offsets:
#	150
#	18455
#	36837
#	57780
#	77105
#	88552
#	114275
#	138625
#	149282
#	163260
#	182085
#	198842
#	219137
#	242750
#
# Disc length: 3408 seconds
#
# Revision: 2
# Processed by: cddbd v1.5PL3 Copyright (c) Steve Scherf et al.
# Submitted via: CDex 1.51
#
DISCID=bb0d4e0e
DTITLE=キンモクセイ - 風の子でいたいね
DYEAR=2003
DGENRE=Pop
TTITLE0=風の子
TTITLE1=愛の食事
TTITLE2=真っ白
TTITLE3=人とコウモリ
TTITLE4=Lemonade
TTITLE5=恋人なくした
TTITLE6=日曜日の夜
TTITLE7=パリジェンヌ
TTITLE8=香港計画
TTITLE9=車線変更25時
TTITLE10=悲しみ草
TTITLE11=Pocket Song
TTITLE12=同じ空の下で
TTITLE13=追伸のテーマ〜さらばキンモクセイ〜
EXTD=YEAR: 2003
EXTT0=
EXTT1=
EXTT2=
EXTT3=
EXTT4=
EXTT5=
EXTT6=
EXTT7=
EXTT8=
EXTT9=
EXTT10=
EXTT11=
EXTT12=
EXTT13=
PLAYORDER=
